#!OML:ASF Y:\EmotionMaleHayes\Project 1\Capture day 1\Session 1\Male1.ASF
:FULLY-SPECIFIED
:DEGREES
1032
root 6.88608 17.6731 0.241657 -306.822 87.9708 -302.917
lowerback 9.97839 1.45947 -4.39281
upperback 0.234172 1.43422 -0.561909
thorax -5.45221 0.824716 1.67459
lowerneck -23.3065 1.57443 3.28697
upperneck 22.9172 1.00561 0.460059
head 11.3343 0.859239 -0.201047
rclavicle 4.79568e-015 1.63003e-014
rhumerus -20.4452 -20.6971 -7.99937
rradius 34.3094
rwrist -5.47269
rhand -6.24228 -36.2689
rfingers 7.12502
rthumb 19.5994 -65.3009
lclavicle 4.79568e-015 1.63003e-014
lhumerus -11.148 31.3386 7.70954
lradius 25.6485
lwrist -7.39686
lhand -7.35677 -18.7399
lfingers 7.12502
lthumb 18.5277 10.3978
rfemur 15.0948 -6.04086 8.53531
rtibia 0.500564
rfoot -11.4661 0.512941
rtoes 6.11491
lfemur 17.4606 -2.22281 -14.3588
ltibia -4.62075
lfoot -10.5285 12.3919
ltoes -1.98323
1033
root 6.89205 17.6742 0.23988 -310.371 88.1122 -306.483
lowerback 9.96926 1.44456 -4.21421
upperback 0.250206 1.43872 -0.49449
thorax -5.42753 0.822218 1.64466
lowerneck -23.2559 1.53273 3.17662
upperneck 22.8495 0.977494 0.500649
head 11.2976 0.840779 -0.173175
rclavicle 1.11847e-014 -6.75868e-015
rhumerus -20.4452 -20.7413 -7.96177
rradius 34.3984
rwrist -5.5778
rhand -6.27359 -36.3013
rfingers 7.12502
rthumb 19.5693 -65.3364
lclavicle 1.11847e-014 -6.75868e-015
lhumerus -11.2742 31.0355 7.67592
lradius 25.7858
lwrist -6.77936
lhand -7.29516 -18.7407
lfingers 7.12502
lthumb 18.5869 10.3913
rfemur 15.0862 -5.99217 8.80363
rtibia 0.320715
rfoot -11.366 0.284868
rtoes 4.76479
lfemur 17.5149 -2.43473 -14.226
ltibia -4.68806
lfoot -10.6783 12.6005
ltoes -1.47652
1034
root 6.89851 17.6748 0.239933 -317.198 88.2371 -313.347
lowerback 9.99379 1.4727 -3.97702
upperback 0.196758 1.50203 -0.439702
thorax -5.49653 0.849021 1.55806
lowerneck -23.2566 1.51039 3.28327
upperneck 22.9566 0.955912 0.33055
head 11.3392 0.820133 -0.25644
rclavicle -6.37353e-015 -2.5842e-015
rhumerus -20.5801 -20.7848 -7.89026
rradius 34.4768
rwrist -5.52914
rhand -6.2168 -36.2705
rfingers 7.12502
rthumb 19.6239 -65.3001
lclavicle -6.37353e-015 -2.5842e-015
lhumerus -11.2083 31.1367 7.73419
lradius 25.8034
lwrist -6.84882
lhand -7.41822 -18.554
lfingers 7.12502
lthumb 18.4685 10.5893
rfemur 15.0485 -5.75535 9.19293
rtibia 0.405441
rfoot -11.5649 0.210096
rtoes 6.08554
lfemur 17.5931 -2.5556 -13.9867
ltibia -4.82598
lfoot -10.7205 12.7616
ltoes -0.917515
1035
root 6.90693 17.6756 0.238933 -320.36 88.1711 -316.574
lowerback 9.91679 1.51276 -3.95031
upperback 0.16653 1.5596 -0.461356
thorax -5.48706 0.876393 1.51307
lowerneck -23.2748 1.51514 3.50891
upperneck 23.0502 0.94357 0.104387
head 11.3804 0.806579 -0.378712
rclavicle 1.04176e-014 -3.97569e-015
rhumerus -20.6612 -20.8226 -7.9008
rradius 34.5243
rwrist -5.4662
rhand -6.08587 -36.3661
rfingers 7.12502
rthumb 19.7498 -65.3827
lclavicle 1.04176e-014 -3.97569e-015
lhumerus -11.1161 31.4222 7.72838
lradius 25.7606
lwrist -7.1573
lhand -7.52756 -18.3632
lfingers 7.12502
lthumb 18.3634 10.79
rfemur 14.9651 -5.71798 9.20006
rtibia 0.154614
rfoot -11.2908 0.27009
rtoes 6.99236
lfemur 17.62 -2.52217 -13.9631
ltibia -4.93024
lfoot -10.7116 12.842
ltoes -0.934978
1036
root 6.91314 17.6764 0.234986 -316.519 87.9251 -312.853
lowerback 9.80666 1.5415 -4.21087
upperback 0.129681 1.56836 -0.547337
thorax -5.46946 0.88683 1.57001
lowerneck -23.2877 1.50899 3.54236
upperneck 23.0992 0.933513 0.0658982
head 11.4016 0.800898 -0.399877
rclavicle 5.96354e-016 9.14409e-015
rhumerus -20.6193 -20.9012 -7.92074
rradius 34.4938
rwrist -5.36857
rhand -5.972 -36.3807
rfingers 7.12502
rthumb 19.8593 -65.3861
lclavicle 5.96354e-016 9.14409e-015
lhumerus -11.1565 31.3717 7.64508
lradius 25.7682
lwrist -7.13911
lhand -7.56062 -18.3891
lfingers 7.12502
lthumb 18.3316 10.7671
rfemur 14.8019 -6.07427 8.72379
rtibia 0.850932
rfoot -11.7571 0.746423
rtoes 5.95502
lfemur 17.5744 -2.48806 -14.3235
ltibia -5.04507
lfoot -10.6863 12.9579
ltoes -1.17298
1037
root 6.91596 17.6778 0.233497 -315.813 87.8442 -312.233
lowerback 9.70412 1.55596 -4.33675
upperback 0.133391 1.57904 -0.54476
thorax -5.41223 0.894443 1.64422
lowerneck -23.3684 1.48298 3.48364
upperneck 23.1634 0.915271 0.0630182
head 11.4403 0.78776 -0.393698
rclavicle -8.24646e-015 7.95139e-015
rhumerus -20.5177 -21.0304 -7.87685
rradius 34.3719
rwrist -5.2708
rhand -6.14408 -36.382
rfingers 7.12502
rthumb 19.6938 -65.4044
lclavicle -8.24646e-015 7.95139e-015
lhumerus -11.2024 31.2008 7.64014
lradius 25.8045
lwrist -6.88112
lhand -7.56421 -18.554
lfingers 7.12502
lthumb 18.3281 10.6026
rfemur 14.6854 -6.02932 8.65901
rtibia 0.437794
rfoot -11.3528 0.47936
rtoes 4.58145
lfemur 17.5245 -2.51206 -14.4371
ltibia -5.10347
lfoot -10.7154 13.0351
ltoes -0.572413
1038
root 6.91893 17.6788 0.232963 -315.973 87.8268 -312.401
lowerback 9.61545 1.56166 -4.38276
upperback 0.189819 1.58929 -0.528488
thorax -5.30539 0.89851 1.68854
lowerneck -23.4107 1.47254 3.40715
upperneck 23.1802 0.910552 0.119703
head 11.4538 0.786366 -0.360621
rclavicle 5.2181e-016 5.96354e-016
rhumerus -20.486 -21.0087 -7.83538
rradius 34.3633
rwrist -5.42938
rhand -6.32731 -36.3915
rfingers 7.12502
rthumb 19.5177 -65.4319
lclavicle 5.2181e-016 5.96354e-016
lhumerus -11.1822 31.2371 7.69549
lradius 25.8169
lwrist -6.72918
lhand -7.5885 -18.5183
lfingers 7.12502
lthumb 18.3047 10.6404
rfemur 14.6892 -5.82339 8.7268
rtibia 0.593257
rfoot -11.5739 0.426654
rtoes 5.44681
lfemur 17.5138 -2.56599 -14.4673
ltibia -5.06733
lfoot -10.8465 13.1012
ltoes 0.0657759
1039
root 6.92295 17.6778 0.23039 -312.897 87.6864 -309.346
lowerback 9.61079 1.54334 -4.5527
upperback 0.181616 1.54389 -0.583943
thorax -5.31175 0.880304 1.73242
lowerneck -23.3618 1.48314 3.3239
upperneck 23.1814 0.930821 0.221134
head 11.4444 0.801896 -0.306173
rclavicle 4.29872e-015 -5.56597e-015
rhumerus -20.4486 -20.9549 -7.86465
rradius 34.4043
rwrist -5.4701
rhand -6.36341 -36.3958
rfingers 7.12502
rthumb 19.483 -65.4397
lclavicle 4.29872e-015 -5.56597e-015
lhumerus -11.2679 31.2287 7.62967
lradius 25.8374
lwrist -6.62172
lhand -7.55767 -18.4728
lfingers 7.12502
lthumb 18.3344 10.6832
rfemur 14.6882 -5.73302 8.5072
rtibia 0.398978
rfoot -11.4014 0.360094
rtoes 6.19522
lfemur 17.5007 -2.60428 -14.7328
ltibia -5.05157
lfoot -10.8643 13.1786
ltoes 0.138791
1040
root 6.9263 17.6763 0.228878 -309.769 87.5564 -306.275
lowerback 9.5959 1.5114 -4.77191
upperback 0.186169 1.47799 -0.598125
thorax -5.29984 0.853196 1.85051
lowerneck -23.2469 1.5077 3.3812
upperneck 22.9905 0.99144 0.0604416
head 11.3522 0.809113 -0.366446
rclavicle -2.93207e-015 3.57812e-015
rhumerus -20.2707 -21.0847 -7.90223
rradius 34.3389
rwrist -5.31129
rhand -6.43895 -36.4461
rfingers 7.12502
rthumb 19.4103 -65.4973
lclavicle -2.93207e-015 3.57812e-015
lhumerus -11.3653 31.5377 7.54766
lradius 25.759
lwrist -6.82546
lhand -7.46938 -18.6877
lfingers 7.12502
lthumb 18.4193 10.4602
rfemur 14.6496 -5.85904 8.23975
rtibia 0.600146
rfoot -11.5747 0.442253
rtoes 5.61428
lfemur 17.4347 -2.65103 -14.9881
ltibia -5.02446
lfoot -10.8527 13.2363
ltoes 0.501814
1041
root 6.92958 17.6766 0.227806 -306.498 87.4455 -303.069
lowerback 9.5043 1.49329 -4.96556
upperback 0.227414 1.43915 -0.624468
thorax -5.20665 0.836568 1.93976
lowerneck -23.1363 1.55427 3.44267
upperneck 22.7973 1.07423 -0.075227
head 11.2609 0.830316 -0.41431
rclavicle 1.11195e-014 -2.92213e-014
rhumerus -20.1882 -21.2512 -7.88878
rradius 34.2864
rwrist -5.27095
rhand -6.46388 -36.4657
rfingers 7.12502
rthumb 19.3864 -65.5193
lclavicle 1.11195e-014 -2.92213e-014
lhumerus -11.293 32.1456 7.55872
lradius 25.6075
lwrist -7.3184
lhand -7.44125 -18.93
lfingers 7.12502
lthumb 18.4464 10.2154
rfemur 14.6205 -5.93767 8.00627
rtibia 0.387797
rfoot -11.4195 0.34851
rtoes 4.66363
lfemur 17.3358 -2.68486 -15.216
ltibia -4.96741
lfoot -10.9851 13.2536
ltoes 0.965056
1042
root 6.9343 17.6778 0.225987 -304.362 87.4278 -300.975
lowerback 9.45521 1.48464 -4.99988
upperback 0.23851 1.42588 -0.662922
thorax -5.16629 0.82966 1.92186
lowerneck -23.1651 1.55854 3.33871
upperneck 22.8494 1.07766 0.0701588
head 11.2846 0.842928 -0.342715
rclavicle -4.48508e-015 -3.77691e-015
rhumerus -20.2708 -21.2532 -7.84975
rradius 34.3344
rwrist -5.37254
rhand -6.43969 -36.5832
rfingers 7.12502
rthumb 19.4096 -65.6345
lclavicle -4.48508e-015 -3.77691e-015
lhumerus -11.1769 32.2476 7.61988
lradius 25.5881
lwrist -7.37913
lhand -7.48175 -18.9065
lfingers 7.12502
lthumb 18.4074 10.2426
rfemur 14.6702 -5.86848 7.94353
rtibia 0.417907
rfoot -11.554 0.354773
rtoes 5.75469
lfemur 17.2954 -2.65955 -15.286
ltibia -4.97478
lfoot -11.0047 13.1709
ltoes 1.16177
1043
root 6.93896 17.6787 0.224348 -303.711 87.4854 -300.355
lowerback 9.45975 1.49734 -4.9221
upperback 0.235576 1.45021 -0.674573
thorax -5.17129 0.839725 1.86245
lowerneck -23.2228 1.48716 3.2656
upperneck 22.9172 0.977369 0.159507
head 11.3184 0.804238 -0.313523
rclavicle -1.11568e-014 -5.36719e-015
rhumerus -20.4431 -21.0536 -7.74527
rradius 34.4347
rwrist -5.526
rhand -6.19369 -36.6349
rfingers 7.12502
rthumb 19.6462 -65.6621
lclavicle -1.11568e-014 -5.36719e-015
lhumerus -11.0273 32.1185 7.74179
lradius 25.6233
lwrist -7.25543
lhand -7.50571 -18.7609
lfingers 7.12502
lthumb 18.3844 10.3904
rfemur 14.6994 -5.95543 7.94823
rtibia 0.434194
rfoot -11.5303 0.388693
rtoes 5.56903
lfemur 17.2857 -2.66565 -15.2395
ltibia -5.01593
lfoot -10.9013 13.1212
ltoes 1.42211
1044
root 6.94169 17.6791 0.222973 -305.173 87.5452 -301.859
lowerback 9.45327 1.52919 -4.80504
upperback 0.230945 1.50533 -0.671165
thorax -5.17327 0.864007 1.7926
lowerneck -23.3034 1.44494 3.28936
upperneck 22.9955 0.903835 0.168328
head 11.3622 0.775706 -0.325527
rclavicle 1.82012e-015 7.7526e-015
rhumerus -20.5453 -21.0999 -7.62022
rradius 34.4014
rwrist -5.38785
rhand -5.89005 -36.5033
rfingers 7.12502
rthumb 19.938 -65.5005
lclavicle 1.82012e-015 7.7526e-015
lhumerus -10.8696 32.3051 7.86567
lradius 25.6191
lwrist -7.53541
lhand -7.46704 -18.7918
lfingers 7.12502
lthumb 18.4216 10.3559
rfemur 14.6784 -5.90245 8.06866
rtibia 0.65081
rfoot -11.7382 0.44288
rtoes 6.106
lfemur 17.2457 -2.76283 -15.1719
ltibia -5.00223
lfoot -10.8984 13.2322
ltoes 1.76636
1045
root 6.94532 17.6776 0.222636 -307.339 87.5989 -304.02
lowerback 9.49879 1.55377 -4.69231
upperback 0.219996 1.54674 -0.677042
thorax -5.20987 0.88231 1.71612
lowerneck -23.3511 1.46692 3.35309
upperneck 23.0591 0.898663 0.210289
head 11.3957 0.786062 -0.320884
rclavicle -1.02001e-014 -1.78906e-015
rhumerus -20.6062 -21.2447 -7.56507
rradius 34.3389
rwrist -5.29087
rhand -6.04218 -36.4933
rfingers 7.12502
rthumb 19.7918 -65.5056
lclavicle -1.02001e-014 -1.78906e-015
lhumerus -10.7203 32.4532 7.92612
lradius 25.5812
lwrist -7.82715
lhand -7.46625 -18.8877
lfingers 7.12502
lthumb 18.4223 10.26
rfemur 14.6694 -5.86495 8.20488
rtibia 0.172501
rfoot -11.2671 0.18668
rtoes 5.02456
lfemur 17.2735 -2.85363 -15.0895
ltibia -4.99283
lfoot -10.8947 13.3387
ltoes 1.45146
